# xmcd
#
# Track frame offsets:
#	150
#	11278
#	25197
#	39228
#	53469
#	71388
#	86198
#	98492
#	114752
#	126850
#	139764
#	156971
#	177777
#	197745
#	210391
#
# Disc length: 2963 seconds
# Revision: 0
# Processed by: cddbd v1.5.2PL0 Copyright (c) Steve Scherf et al.
# Submitted via: dBpowerAMP V12.0
#
DISCID=b20b910f
DTITLE=Dave Speight - Blues Around Midnight
DYEAR=2018
DGENRE=Blues
TTITLE0=Blues Around Midnight
TTITLE1=Candyman
TTITLE2=Raidin Squad
TTITLE3=Statesboro Blues
TTITLE4=Feelin' Low Down
TTITLE5=Delia
TTITLE6=Love Truth And Confidence
TTITLE7=Going Down Slow
TTITLE8=Bad Luck Blues
TTITLE9=It Hurts Me Too
TTITLE10=Matchbox
TTITLE11=Tomorrow Night
TTITLE12=Fool's Love Song
TTITLE13=Girl From North Country
TTITLE14=Blues Run The Game
EXTD=
EXTT0=
EXTT1=
EXTT2=
EXTT3=
EXTT4=
EXTT5=
EXTT6=
EXTT7=
EXTT8=
EXTT9=
EXTT10=
EXTT11=
EXTT12=
EXTT13=
EXTT14=
PLAYORDER=
